<svg xmlns="http://www.w3.org/2000/svg" viewBox="0 0 1080 1080"><defs><style>.cls-1{fill:#fff;}</style></defs><title>icon-white</title><g id="Layer_3" data-name="Layer 3"><path class="cls-1" d="M617.14,1002.86H270V848.57H617.14a115.72,115.72,0,1,0,0-231.43H424.29V462.86H617.14c148.88,0,270,121.12,270,270S766,1002.86,617.14,1002.86Z"/><path class="cls-1" d="M540,617.14H347.14V462.86H540a115.72,115.72,0,0,0,0-231.43H270V77.14H540c148.88,0,270,121.12,270,270S688.88,617.14,540,617.14Z"/><polygon class="cls-1" points="347.14 771.43 192.86 925.71 347.14 1080 347.14 771.43"/><polygon class="cls-1" points="347.14 0 192.86 154.29 347.14 308.57 347.14 0"/></g></svg>