<svg xmlns="http://www.w3.org/2000/svg" xmlns:xlink="http://www.w3.org/1999/xlink" viewBox="0 0 1080 1080"><defs><style>.cls-1,.cls-5{fill:none;}.cls-2{fill:#12181e;}.cls-3{clip-path:url(#clip-path);}.cls-4{opacity:0.2;}.cls-5{stroke:#000;stroke-miterlimit:10;}</style><clipPath id="clip-path"><rect class="cls-1" x="784.43" y="-694.09" width="190.9" height="281.02"/></clipPath></defs><title>icon</title><g id="Layer_3" data-name="Layer 3"><path class="cls-2" d="M617.14,1002.86H270V848.57H617.14a115.72,115.72,0,1,0,0-231.43H424.29V462.86H617.14c148.88,0,270,121.12,270,270S766,1002.86,617.14,1002.86Z"/><path class="cls-2" d="M540,617.14H347.14V462.86H540a115.72,115.72,0,0,0,0-231.43H270V77.14H540c148.88,0,270,121.12,270,270S688.88,617.14,540,617.14Z"/><polygon class="cls-2" points="347.14 771.43 192.86 925.71 347.14 1080 347.14 771.43"/><polygon class="cls-2" points="347.14 0 192.86 154.29 347.14 308.57 347.14 0"/><g class="cls-3"><g class="cls-4"><rect class="cls-5" x="115.35" y="-787.43" width="899.45" height="899.45"/><line class="cls-5" x1="115.35" y1="94.03" x2="1014.79" y2="94.03"/><line class="cls-5" x1="115.35" y1="76.04" x2="1014.79" y2="76.04"/><line class="cls-5" x1="115.35" y1="58.05" x2="1014.79" y2="58.05"/><line class="cls-5" x1="115.35" y1="40.06" x2="1014.79" y2="40.06"/><line class="cls-5" x1="115.35" y1="22.07" x2="1014.79" y2="22.07"/><line class="cls-5" x1="115.35" y1="4.08" x2="1014.79" y2="4.08"/><line class="cls-5" x1="996.81" y1="-787.43" x2="996.81" y2="112.01"/><line class="cls-5" x1="978.82" y1="-787.43" x2="978.82" y2="112.01"/><line class="cls-5" x1="960.83" y1="-787.43" x2="960.83" y2="112.01"/><line class="cls-5" x1="942.84" y1="-787.43" x2="942.84" y2="112.01"/><line class="cls-5" x1="924.85" y1="-787.43" x2="924.85" y2="112.01"/><line class="cls-5" x1="906.86" y1="-787.43" x2="906.86" y2="112.01"/><line class="cls-5" x1="888.87" y1="-787.43" x2="888.87" y2="112.01"/><line class="cls-5" x1="870.88" y1="-787.43" x2="870.88" y2="112.01"/><line class="cls-5" x1="852.89" y1="-787.43" x2="852.89" y2="112.01"/><line class="cls-5" x1="834.91" y1="-787.43" x2="834.91" y2="112.01"/><line class="cls-5" x1="816.92" y1="-787.43" x2="816.92" y2="112.01"/><line class="cls-5" x1="798.93" y1="-787.43" x2="798.93" y2="112.01"/><line class="cls-5" x1="780.94" y1="-787.43" x2="780.94" y2="112.01"/><line class="cls-5" x1="762.95" y1="-787.43" x2="762.95" y2="112.01"/><line class="cls-5" x1="744.96" y1="-787.43" x2="744.96" y2="112.01"/><line class="cls-5" x1="726.97" y1="-787.43" x2="726.97" y2="112.01"/><line class="cls-5" x1="708.98" y1="-787.43" x2="708.98" y2="112.01"/><line class="cls-5" x1="690.99" y1="-787.43" x2="690.99" y2="112.01"/><line class="cls-5" x1="673.01" y1="-787.43" x2="673.01" y2="112.01"/><line class="cls-5" x1="655.02" y1="-787.43" x2="655.02" y2="112.01"/><line class="cls-5" x1="637.03" y1="-787.43" x2="637.03" y2="112.01"/><line class="cls-5" x1="619.04" y1="-787.43" x2="619.04" y2="112.01"/><line class="cls-5" x1="601.05" y1="-787.43" x2="601.05" y2="112.01"/><line class="cls-5" x1="583.06" y1="-787.43" x2="583.06" y2="112.01"/><line class="cls-5" x1="565.07" y1="-787.43" x2="565.07" y2="112.01"/><line class="cls-5" x1="547.08" y1="-787.43" x2="547.08" y2="112.01"/><line class="cls-5" x1="529.09" y1="-787.43" x2="529.09" y2="112.01"/><line class="cls-5" x1="511.1" y1="-787.43" x2="511.1" y2="112.01"/><line class="cls-5" x1="493.12" y1="-787.43" x2="493.12" y2="112.01"/><line class="cls-5" x1="475.13" y1="-787.43" x2="475.13" y2="112.01"/><line class="cls-5" x1="457.14" y1="-787.43" x2="457.14" y2="112.01"/><line class="cls-5" x1="439.15" y1="-787.43" x2="439.15" y2="112.01"/><line class="cls-5" x1="421.16" y1="-787.43" x2="421.16" y2="112.01"/><line class="cls-5" x1="403.17" y1="-787.43" x2="403.17" y2="112.01"/><line class="cls-5" x1="385.18" y1="-787.43" x2="385.18" y2="112.01"/><line class="cls-5" x1="367.19" y1="-787.43" x2="367.19" y2="112.01"/><line class="cls-5" x1="349.2" y1="-787.43" x2="349.2" y2="112.01"/><line class="cls-5" x1="331.22" y1="-787.43" x2="331.22" y2="112.01"/><line class="cls-5" x1="313.23" y1="-787.43" x2="313.23" y2="112.01"/><line class="cls-5" x1="295.24" y1="-787.43" x2="295.24" y2="112.01"/><line class="cls-5" x1="277.25" y1="-787.43" x2="277.25" y2="112.01"/><line class="cls-5" x1="259.26" y1="-787.43" x2="259.26" y2="112.01"/><line class="cls-5" x1="241.27" y1="-787.43" x2="241.27" y2="112.01"/><line class="cls-5" x1="223.28" y1="-787.43" x2="223.28" y2="112.01"/><line class="cls-5" x1="205.29" y1="-787.43" x2="205.29" y2="112.01"/><line class="cls-5" x1="187.3" y1="-787.43" x2="187.3" y2="112.01"/><line class="cls-5" x1="169.32" y1="-787.43" x2="169.32" y2="112.01"/><line class="cls-5" x1="151.33" y1="-787.43" x2="151.33" y2="112.01"/><line class="cls-5" x1="133.34" y1="-787.43" x2="133.34" y2="112.01"/></g></g></g></svg>