<svg xmlns="http://www.w3.org/2000/svg" viewBox="0 0 1080 206.8"><defs><style>.cls-1{fill:#f0b90a;}</style></defs><title>logo-yellow</title><g id="Layer_3" data-name="Layer 3"><path class="cls-1" d="M218.74,113v48.32H194v-47c0-13.77-8.31-20-16.8-20-8.87,0-19.82,4.72-19.82,20.76v46.24H132.66V73.17h24.73V88.08c3.78-11.89,17.74-17.18,26.43-17.18C206.84,70.9,218.92,86.57,218.74,113Z"/><path class="cls-1" d="M270.48,138.1h57v23.21H244.24v-130h81.54V54.48h-55.3v31H319V109H270.48Z"/><path class="cls-1" d="M434.34,161.31H405.46L386,133.19l-19.82,28.12H337.13l34.92-47.75L343,73.17h29.26l14,20.38,13.59-20.38h29.07l-29.07,40.39Z"/><path class="cls-1" d="M437.75,117c0-27.94,22.65-46.06,48.32-46.06a44.63,44.63,0,0,1,37.19,18.88l-18.69,13c-4-5.47-11.32-8.87-18.31-8.87-14,0-23.4,10.19-23.4,23,0,13,9.44,23.59,23.4,23.59,7,0,14.35-3.4,18.31-8.87l18.69,13a44.63,44.63,0,0,1-37.19,18.88C460.4,163.58,437.75,144.89,437.75,117Z"/><path class="cls-1" d="M627.09,113v48.32H602.36V114.5c0-13.78-8.3-20.19-16.8-20.19-8.87,0-19.81,4.9-19.81,20.76v46.24H541V25.22h24.73V87.13c3.77-11.32,17.93-16.23,26.42-16.23C615.2,70.9,627.28,86.57,627.09,113Z"/><path class="cls-1" d="M717.15,73.17h24.72v88.14H717.15V148.67c-5.85,9.06-17.18,14.91-29.07,14.91-24.35,0-42.47-18.88-42.47-46.25s17.74-46.43,43-46.43c11.32,0,22.65,4.91,28.5,14Zm-.76,44.16a23.2,23.2,0,0,0-23-23.4c-12.83,0-22.46,10.57-22.46,23.4,0,12.27,9.63,23.22,22.65,23.22C706,140.55,716.39,130,716.39,117.33Z"/><path class="cls-1" d="M852.88,113v48.32H828.16v-47c0-13.77-8.31-20-16.8-20-8.87,0-19.82,4.72-19.82,20.76v46.24H766.81V73.17h24.73V88.08C795.32,76.19,809.28,70.9,818,70.9,841,70.9,853.07,86.57,852.88,113Z"/><path class="cls-1" d="M942.94,73.17h24.73v77.2c0,38.5-19.44,56.43-50.59,56.43-18.87,0-35.3-10.57-42.85-27l20.58-8.87c3.77,8.12,12.83,13.78,22.27,13.78,15.86,0,25.86-8.87,25.86-31.71v-2.46c-6.42,8.69-18.5,13-28.31,13-22.65,0-43.23-18.12-43.23-46.43S892,70.9,914.63,70.9c10,0,21.89,4.15,28.31,12.84Zm-.75,44a23.24,23.24,0,0,0-22.84-23.22,23,23,0,0,0-22.84,23.22c0,12.83,10.38,23.4,22.84,23.4A23.16,23.16,0,0,0,942.19,117.15Z"/><path class="cls-1" d="M1079.43,125.26h-66.25c2.64,10.38,11,16.42,22.65,16.42a31.49,31.49,0,0,0,23.22-10.38l14.34,14.54c-8.3,11.13-23.59,17.74-39.07,17.74-27.18,0-47-19.07-47-46.25,0-28.5,21.71-46.43,46.81-46.43,25.3,0,45.87,17.93,45.87,44.92C1080,118.28,1079.81,121.3,1079.43,125.26Zm-24.35-16c-.75-10.38-9.25-17-20.38-17-10.2,0-18.88,5.1-21.52,17Z"/><path class="cls-1" d="M92.4,82.11A44,44,0,0,0,56.58,12.57H25.15V0L0,25.15,25.15,50.3V37.72H56.58a18.87,18.87,0,1,1,0,37.73H25.15v25.14h44a18.87,18.87,0,0,1,0,37.73h-44V125.74L0,150.89,25.15,176V163.47h44A44,44,0,0,0,92.4,82.11Z"/></g></svg>